<?xml version="1.0" encoding="iso-8859-1"?>
<!-- Uploaded to: SVG Repo, www.svgrepo.com, Generator: SVG Repo Mixer Tools -->
<svg fill="#000000" version="1.1" id="Layer_1" xmlns="http://www.w3.org/2000/svg" xmlns:xlink="http://www.w3.org/1999/xlink" 
	 viewBox="0 0 512 512" xml:space="preserve">
<g>
	<g>
		<rect x="97.583" y="105.639" width="15.673" height="15.673"/>
	</g>
</g>
<g>
	<g>
		<path d="M103.664,54.308V23.51H35.196v30.797H0v169.659h15.402v233.176h336.311v-15.673h-69.59V284.735H151.51v156.735H31.075
			V223.965h70.198l111.144-111.143L323.56,223.965h78.997v69.932h15.673v-69.932h15.402V54.308H103.664z M167.184,300.408h99.265
			v141.061h-99.265V300.408z M50.87,39.184h37.121v44.185L50.87,117.087V39.184z M94.782,208.292H15.673v-35.654h114.762
			L94.782,208.292z M417.959,208.292h-87.907l-35.654-35.654h27.504v-15.673h-43.177l-35.652-35.652h174.887V208.292z
			 M417.959,105.639H227.398l-14.981-14.982l-14.982,14.982h-63.281v15.673h47.608l-35.652,35.652H15.673V69.981h19.523v82.517
			l68.468-62.192V69.981h314.295V105.639z"/>
	</g>
</g>
<g>
	<g>
		<path d="M409.749,340.677c-12.61,0-22.869,10.259-22.869,22.869c0,9.859,6.27,18.279,15.032,21.485V488.49h15.674V385.03
			c8.761-3.206,15.032-11.627,15.032-21.485C432.618,350.935,422.359,340.677,409.749,340.677z M409.749,370.741
			c-3.968,0-7.195-3.228-7.195-7.195c0-3.967,3.228-7.195,7.195-7.195c3.967,0,7.195,3.228,7.195,7.195
			C416.945,367.514,413.717,370.741,409.749,370.741z"/>
	</g>
</g>
<g>
	<g>
		<path d="M489.131,231.445c-12.61,0-22.869,10.259-22.869,22.869c0,9.86,6.271,18.281,15.035,21.486l-0.003,121.152l-26.842,26.843
			v-93.38c8.761-3.206,15.032-11.627,15.032-21.484c0-12.61-10.259-22.869-22.869-22.869c-12.61,0-22.869,10.259-22.869,22.869
			c0,9.859,6.27,18.278,15.032,21.485V488.49h15.673v-42.531l42.516-42.517l0.003-127.646c8.76-3.206,15.029-11.625,15.029-21.483
			C512,241.704,501.741,231.445,489.131,231.445z M446.615,316.124c-3.968,0-7.195-3.228-7.195-7.195s3.228-7.195,7.195-7.195
			c3.967,0,7.195,3.228,7.195,7.195S450.582,316.124,446.615,316.124z M489.131,261.509c-3.967,0-7.195-3.228-7.195-7.195
			c0-3.967,3.228-7.195,7.195-7.195s7.195,3.228,7.195,7.195S493.099,261.509,489.131,261.509z"/>
	</g>
</g>
<g>
	<g>
		<path d="M339.995,396.951l-0.003-66.035c8.764-3.205,15.035-11.627,15.035-21.486c0-12.61-10.259-22.869-22.869-22.869
			S309.29,296.82,309.29,309.43c0,9.857,6.268,18.276,15.029,21.483l0.003,72.529l42.516,42.517v42.531h15.673v-49.021
			L339.995,396.951z M332.158,316.626c-3.968,0-7.195-3.228-7.195-7.195s3.228-7.195,7.195-7.195c3.967,0,7.195,3.228,7.195,7.195
			S336.126,316.626,332.158,316.626z"/>
	</g>
</g>
<g>
	<g>
		<rect x="379.371" y="156.965" width="15.673" height="15.673"/>
	</g>
</g>
<g>
	<g>
		<rect x="342.8" y="156.965" width="15.673" height="15.673"/>
	</g>
</g>
</svg>